<?xml version="1.0" encoding="utf-8"?>
<!-- Generator: Adobe Illustrator 19.0.0, SVG Export Plug-In . SVG Version: 6.00 Build 0)  -->
<svg version="1.1" id="Capa_1" xmlns="http://www.w3.org/2000/svg" xmlns:xlink="http://www.w3.org/1999/xlink" x="0px" y="0px"
	 viewBox="125.3 -87.9 198.2 274.9" style="enable-background:new 125.3 -87.9 198.2 274.9;" xml:space="preserve">
<path d="M296.9-59.6c-18.1-18.2-43.8-28.3-72.4-28.3c-54.6,0-99.1,44.4-99.1,99.1v108.6c0,42.1,18.9,67.2,50.6,67.2
	c45.9,0,61.1-32.2,70.2-51.5l0.2-0.5c10.2-21.5,23.4-30.8,36.2-39.7c20.8-14.5,40.4-28.2,40.9-84.1
	C323.8-17.2,314.6-41.7,296.9-59.6z M234-37.1c-31.7-5.8-59.1,11.1-66.7,41c-1.4,5.7-3.8,15.1-1,19.8c0.4,0.7,1.6,2.6,6.2,3.7
	c15.7,3.7,28.4,15.4,32.2,29.8c2.4,9,3.3,27-17.4,46.1c-1.4,1.3-3.3,2-5.1,2c-2,0-4-0.8-5.5-2.4c-2.8-3-2.6-7.8,0.4-10.6
	c11.1-10.2,15.7-21.3,13.1-31.2c-2.4-9.1-10.7-16.6-21.1-19c-7.1-1.7-12.4-5.2-15.6-10.5c-6.1-10-2.7-23.3-0.7-31.3
	c4.9-19.1,15.9-34.2,32-43.7c15-8.8,33.5-11.8,52-8.4c21.5,3.9,39.3,17.4,48.9,36.9c1.8,3.7,0.3,8.2-3.4,10c-3.7,1.8-8.2,0.3-10-3.4
	C264.8-23.6,250.8-34,234-37.1z M273.8,64.9c-1.4,1.2-3.1,1.8-4.8,1.8c-2.1,0-4.3-0.9-5.7-2.7c-2.7-3.2-2.3-7.9,0.9-10.6
	c15.4-13,14.2-36.9,14.2-37.1c-0.3-4.1,2.9-7.7,7-7.9c4.2-0.2,7.7,2.9,7.9,7C293.3,16.7,294.9,47,273.8,64.9z"/>
</svg>
