<?xml version="1.0" encoding="utf-8"?>
<!-- Generator: Adobe Illustrator 19.0.0, SVG Export Plug-In . SVG Version: 6.00 Build 0)  -->
<svg version="1.1" id="Capa_1" xmlns="http://www.w3.org/2000/svg" xmlns:xlink="http://www.w3.org/1999/xlink" x="0px" y="0px"
	 viewBox="-19 21 60 60" style="enable-background:new -19 21 60 60;" xml:space="preserve">
<style type="text/css">
	.st0{fill:#2BC14F;}
</style>
<g>
	<path class="st0" d="M19.9,21h-32.4v60h47V35.6L19.9,21z M20.5,24.4L31.1,35H20.5V24.4z M-10.5,79V23h29v14h14v42H-10.5z"/>
	<path class="st0" d="M23.5,42h-16c-0.6,0-1,0.4-1,1s0.4,1,1,1h16c0.6,0,1-0.4,1-1S24.1,42,23.5,42z"/>
	<path class="st0" d="M3.9,39.2l-4.3,3.4l-1.4-1.4c-0.4-0.4-1-0.4-1.4,0s-0.4,1,0,1.4l2,2C-1,44.9-0.8,45-0.5,45
		c0.2,0,0.4-0.1,0.6-0.2l5-4c0.4-0.3,0.5-1,0.2-1.4C4.9,38.9,4.3,38.9,3.9,39.2z"/>
	<path class="st0" d="M23.5,53h-16c-0.6,0-1,0.4-1,1s0.4,1,1,1h16c0.6,0,1-0.4,1-1S24.1,53,23.5,53z"/>
	<path class="st0" d="M3.9,50.2l-4.3,3.4l-1.4-1.4c-0.4-0.4-1-0.4-1.4,0s-0.4,1,0,1.4l2,2C-1,55.9-0.8,56-0.5,56
		c0.2,0,0.4-0.1,0.6-0.2l5-4c0.4-0.3,0.5-1,0.2-1.4C4.9,49.9,4.3,49.9,3.9,50.2z"/>
	<path class="st0" d="M23.5,64h-16c-0.6,0-1,0.4-1,1s0.4,1,1,1h16c0.6,0,1-0.4,1-1S24.1,64,23.5,64z"/>
	<path class="st0" d="M3.9,61.2l-4.3,3.4l-1.4-1.4c-0.4-0.4-1-0.4-1.4,0s-0.4,1,0,1.4l2,2C-1,66.9-0.8,67-0.5,67
		c0.2,0,0.4-0.1,0.6-0.2l5-4c0.4-0.3,0.5-1,0.2-1.4C4.9,60.9,4.3,60.9,3.9,61.2z"/>
</g>
</svg>
