<?xml version="1.0" encoding="utf-8"?>
<!-- Generator: Adobe Illustrator 19.0.0, SVG Export Plug-In . SVG Version: 6.00 Build 0)  -->
<svg version="1.1" id="Capa_1" xmlns="http://www.w3.org/2000/svg" xmlns:xlink="http://www.w3.org/1999/xlink" x="0px" y="0px"
	 viewBox="3 -2.1 105.1 105.1" style="enable-background:new 3 -2.1 105.1 105.1;" xml:space="preserve">
<style type="text/css">
	.st0{fill:#42ADDB;}
</style>
<g>
	<g>
		<g>
			<path class="st0" d="M67.8,13c-0.2,0-0.4-0.1-0.4-0.3s0-0.5,0-0.7c0,0,0.2-2.1,1.3-3.4c1-1.2,1.5-2,1.5-3c0-1.1-0.7-1.8-2.1-1.9
				c-0.8,0-1.7,0.3-2.2,0.7l-0.4-1c-0.1-0.2,0-0.4,0.2-0.5c0,0,1.6-0.7,2.7-0.7c2.5,0,3.6,1.5,3.6,3.2c0,1.5-0.8,2.5-1.9,3.8
				c-1,1.1-1.3,2.1-1.2,3.2l0,0.2c0,0.2-0.2,0.4-0.4,0.4H67.8z"/>
		</g>
		<g>
			<path class="st0" d="M68.7,13.4h-0.9c-0.4,0-0.8-0.3-0.8-0.7c0-0.2,0-0.5,0-0.8c0-0.1,0.2-2.2,1.4-3.6c0.9-1.1,1.4-1.9,1.4-2.7
				c0-1.2-0.9-1.5-1.7-1.5c-0.7,0-1.5,0.2-1.9,0.6l-0.4,0.3l-0.6-1.5c-0.2-0.4,0-0.9,0.4-1c0.1,0,1.7-0.7,2.9-0.7c2.8,0,4,1.8,4,3.6
				c0,1.6-0.8,2.7-2,4c-0.9,1-1.2,1.9-1.1,2.9l0,0.2c0,0.2-0.1,0.4-0.2,0.6C69.1,13.3,68.9,13.4,68.7,13.4z M67.8,12.6l0.9,0l0-0.1
				C68.6,11.2,69,10.2,70,9c1-1.2,1.8-2.2,1.8-3.5c0-1.4-0.8-2.8-3.2-2.8c-1.1,0-2.6,0.7-2.6,0.7l0.2,0.6c0.6-0.3,1.3-0.5,2-0.5
				c1.5,0,2.5,0.9,2.5,2.3c0,1.1-0.6,2-1.6,3.2c-1,1.2-1.2,3.1-1.2,3.1C67.8,12.3,67.8,12.5,67.8,12.6z"/>
		</g>
	</g>
	<g>
		<g>
			<path class="st0" d="M66.9,16.1c0-0.8,0.5-1.4,1.3-1.4c0.8,0,1.3,0.6,1.3,1.4c0,0.8-0.5,1.3-1.3,1.3
				C67.4,17.4,66.9,16.8,66.9,16.1z"/>
		</g>
		<g>
			<path class="st0" d="M68.2,17.8c-1,0-1.7-0.8-1.7-1.7c0-1,0.7-1.8,1.7-1.8c1,0,1.7,0.7,1.7,1.8C69.9,17.1,69.2,17.8,68.2,17.8z
				 M68.2,15.1c-0.5,0-0.9,0.4-0.9,1c0,0.6,0.4,0.9,0.9,0.9c0.6,0,0.9-0.4,0.9-0.9C69.1,15.5,68.7,15.1,68.2,15.1z"/>
		</g>
	</g>
</g>
<g>
	<path class="st0" d="M35.2,47.9l14.6-3.8c1.4-0.4,2.8-1.7,3.2-3.1l3.7-13.1c0.2-0.8,0.1-1.6-0.4-2.2c-0.4-0.6-1.2-1-2-1.1l-1.6-0.1
		c-1.5,0-3,1.1-3.4,2.5l-2.4,7.8c-0.2,0.7-1.1,1.5-1.8,1.7l-10.8,2.1c-1.5,0.4-2.7,1.9-2.8,3.4c0,0-0.1,4.7,0.3,5.2
		C32.3,47.7,32.9,48.2,35.2,47.9z"/>
	<path class="st0" d="M44.9,32.7c0.4,0,0.9,0,1.3-0.1l1.8-6c0.6-2,2.6-3.4,4.7-3.4l1.6,0.1c0.4,0,0.9,0.1,1.3,0.3
		c0.1-0.6,0.1-1.1,0.1-1.7c0-6-4.9-10.8-10.8-10.8s-10.8,4.9-10.8,10.8S38.9,32.7,44.9,32.7z"/>
	<path class="st0" d="M68.8-2.1c-6,0-10.8,5.4-10.8,12c0,3,1,5.7,2.6,7.8c-0.1,0.1-0.2,0.1-0.2,0.2l-2.2,3.5
		c-0.3,0.5-0.2,1.1,0.3,1.4c0.2,0.1,0.4,0.2,0.5,0.2c0.3,0,0.7-0.2,0.8-0.5l2.1-3.3c1.9,1.7,4.3,2.7,6.9,2.7c6,0,10.8-5.4,10.8-12
		S74.8-2.1,68.8-2.1z M68.8,19.8c-4.9,0-8.8-4.5-8.8-10s4-10,8.8-10s8.8,4.5,8.8,10S73.7,19.8,68.8,19.8z"/>
	<path class="st0" d="M58.6,37.2c-0.6-0.8-1.7-1.5-2.7-1.8l-1.6,5.9c-0.5,1.9-2.2,3.6-4.1,4l-14.6,3.8c-0.7,0.1-1.2,0.2-1.7,0.2
		c-0.1,0-0.2,0-0.4,0v19.1v0.5V98c0,2.8,2.2,5,5,5h0.4c2.8,0,5-2.2,5-5V71.8H46V98c0,2.8,2.2,5,5,5h0.4c2.8,0,5-2.2,5-5V68.8v-0.5
		v-0.1h0.3c1.4,0,3.1-1,3.9-2.3l6.9-12.3c0.7-1.3,0.6-3.2-0.2-4.4L58.6,37.2z M59.7,53.4l-3.3,5.5V46.5l3.3,4.7
		C60,51.8,60,52.8,59.7,53.4z"/>
</g>
</svg>
